<svg xmlns="http://www.w3.org/2000/svg" viewBox="0 0 258.78 560.81"><defs><style>.cls-1{fill:#f69a89;}</style></defs><title>Asset 1</title><g id="Layer_2" data-name="Layer 2"><g id="Layer_1-2" data-name="Layer 1"><rect class="cls-1" x="70.24" y="524.81" width="100" height="36" rx="14.39" ry="14.39"/><rect class="cls-1" x="29.24" y="485.81" width="186" height="35" rx="13.56" ry="13.56"/><rect class="cls-1" x="20.24" y="445.81" width="209" height="36" rx="13.61" ry="13.61"/><rect class="cls-1" x="2.24" y="410.81" width="244" height="29" rx="12" ry="12"/><rect class="cls-1" x="30.11" y="22.97" width="168.39" height="39.74" rx="13.6" ry="13.6" transform="translate(-7.74 40.17) rotate(-19.3)"/><rect class="cls-1" x="-2.34" y="72.11" width="258.38" height="53.35" rx="14.18" ry="14.18" transform="translate(-25.52 47.47) rotate(-19.3)"/><rect class="cls-1" x="-1.62" y="151.47" width="260.36" height="54.36" rx="13.09" ry="13.09" transform="translate(-51.81 52.52) rotate(-19.3)"/><rect class="cls-1" x="-1.6" y="232.4" width="256.73" height="47.27" rx="12.35" ry="12.35" transform="translate(-77.48 56.27) rotate(-19.3)"/><rect class="cls-1" x="-0.86" y="314.37" width="255.53" height="38.51" rx="13.22" ry="13.22" transform="translate(-103.11 60.68) rotate(-19.3)"/><path class="cls-1" d="M217.75,436.65V395s-3.26-25.4,25.43-18.88,11.09-37.12,0-24.09-47.6-21.73-51.52,34.39S191,438.6,217.75,436.65Z"/><path class="cls-1" d="M54.6,433V394.85s3-23.23-23.27-17.27-10.14-34,0-22S74.89,335.65,78.47,387,79.06,434.76,54.6,433Z"/></g></g></svg>