<svg xmlns="http://www.w3.org/2000/svg" viewBox="0 0 479.14 103.43"><defs><style>.cls-1{fill:#8ec640;}.cls-2{fill:#fcba2f;}.cls-3{font-size:8.97px;}.cls-11,.cls-3,.cls-6,.cls-7,.cls-9{fill:#fff;font-family:ArialMT, Arial;}.cls-4{letter-spacing:-0.13em;}.cls-5{fill:#f26749;}.cls-6{font-size:15.02px;}.cls-11,.cls-7{font-size:16.77px;}.cls-7{letter-spacing:-0.13em;}.cls-8{letter-spacing:0em;}.cls-9{font-size:12.78px;}.cls-10{letter-spacing:-0.13em;}</style></defs><title>Asset 1</title><g id="Layer_2" data-name="Layer 2"><g id="Layer_1-2" data-name="Layer 1"><path class="cls-1" d="M103.15,51.86A51.57,51.57,0,1,1,51.57.28,51.59,51.59,0,0,1,103.15,51.86Z"/><circle class="cls-1" cx="427.57" cy="51.57" r="51.57"/><path class="cls-2" d="M1.23,40.6,50.46,52.69,1.8,65.39s-2.39-16.86-.56-24S1.23,40.6,1.23,40.6Z"/><text class="cls-3" transform="translate(3.3 56.15)"><tspan class="cls-4">P</tspan><tspan x="4.83" y="0">.M.</tspan></text><path class="cls-5" d="M64.65,101.37,51.19,52.72,1.61,65.86S13,110.6,64.65,101.37Z"/><text class="cls-6" transform="translate(74.31 56.83)">A.M.</text><path class="cls-2" d="M51.19,52.72l13.46,48.66s25.41-4.81,36.4-34.93Z"/><path class="cls-1" d="M290.64,51.71A51.57,51.57,0,1,1,239.06.14,51.59,51.59,0,0,1,290.64,51.71Z"/><path class="cls-5" d="M188.73,40.46,238,52.55l-48.67,12.7s-2.39-16.86-.56-24S188.73,40.46,188.73,40.46Z"/><text class="cls-7" transform="translate(381.14 55.57)">P<tspan class="cls-8" x="9.03" y="0">.M.</tspan></text><path class="cls-2" d="M252.14,101.23,238.69,52.57,189.1,65.72S200.46,110.46,252.14,101.23Z"/><text class="cls-6" transform="translate(261.81 56.68)">A.M.</text><path class="cls-5" d="M238.69,52.57l13.46,48.66s25.41-4.81,36.4-34.93Z"/><text class="cls-9" transform="translate(190.85 57.52)"><tspan class="cls-10">P</tspan><tspan x="6.88" y="0">.M.</tspan></text><text class="cls-11" transform="translate(443.17 56.15)">A.M.</text></g></g></svg>