<svg xmlns="http://www.w3.org/2000/svg" viewBox="0 0 358.94 216.78"><defs><style>.cls-1{fill:#f26649;}.cls-2{font-size:99.64px;letter-spacing:-0.04em;}.cls-2,.cls-4{fill:gray;font-family:SourceSansPro-Regular, Source Sans Pro;}.cls-3{letter-spacing:0em;}.cls-4{font-size:97.51px;}</style></defs><title>Asset 1</title><g id="Layer_2" data-name="Layer 2"><g id="Layer_1-2" data-name="Layer 1"><rect class="cls-1" x="79.7" y="4.6" width="17.28" height="48.15" rx="8.64" ry="8.64"/><rect class="cls-1" x="24.07" y="101.43" width="17.28" height="48.15" rx="8.64" ry="8.64" transform="translate(119.66 29.26) rotate(56.71)"/><rect class="cls-1" x="48.67" y="124.5" width="17.28" height="48.15" rx="8.64" ry="8.64" transform="translate(88.22 -7.64) rotate(32.28)"/><rect class="cls-1" x="79.7" y="131.91" width="17.28" height="48.15" rx="8.64" ry="8.64"/><rect class="cls-1" x="15.43" y="68.71" width="17.28" height="48.15" rx="8.64" ry="8.64" transform="translate(-68.71 116.86) rotate(-90)"/><rect class="cls-1" x="24.07" y="35.96" width="17.28" height="48.15" rx="8.64" ry="8.64" transform="translate(-35.31 53.23) rotate(-55.7)"/><rect class="cls-1" x="48.67" y="14.08" width="17.28" height="48.15" rx="8.64" ry="8.64" transform="translate(-11.4 33.77) rotate(-30)"/><text class="cls-2" transform="translate(107.75 82.7) scale(0.82 1)">T<tspan class="cls-3" x="49.42" y="0">AKE</tspan></text><text class="cls-4" transform="translate(107.72 185.29) scale(0.74 1)">CHARGE</text></g></g></svg>