<svg id="Layer_1" data-name="Layer 1" xmlns="http://www.w3.org/2000/svg" viewBox="0 0 853.18 332.91"><defs><style>.cls-1,.cls-11,.cls-12,.cls-13,.cls-5{fill:#0194d3;}.cls-10,.cls-2,.cls-7,.cls-8{fill:#f26649;}.cls-3{fill:#fff;}.cls-4{font-size:126.81px;}.cls-4,.cls-9{font-family:ArialMT, Arial;}.cls-5{letter-spacing:-0.04em;}.cls-6{letter-spacing:0em;}.cls-7{letter-spacing:-0.07em;}.cls-8{letter-spacing:-0.02em;}.cls-9{font-size:53.76px;fill:gray;}.cls-10{letter-spacing:-0.02em;}.cls-11{letter-spacing:0em;}.cls-12{letter-spacing:-0.07em;}.cls-13{letter-spacing:-0.04em;}</style></defs><title>squares</title><rect class="cls-1" y="15.24" width="152.63" height="152.63" rx="12" ry="12"/><rect class="cls-2" x="175.2" y="180.28" width="152.63" height="152.63" rx="12" ry="12"/><rect class="cls-1" y="180.28" width="152.63" height="152.63" rx="12" ry="12"/><rect class="cls-1" x="175.2" y="15.24" width="152.63" height="152.63" rx="12" ry="12"/><rect class="cls-3" x="18.46" y="74.28" width="115.71" height="34.54" rx="15.75" ry="15.75"/><rect class="cls-3" x="176.38" y="340.32" width="115.71" height="34.54" rx="15.75" ry="15.75" transform="translate(433.9 -142.68) rotate(90)"/><rect class="cls-3" x="351.59" y="340.32" width="115.71" height="34.54" rx="15.75" ry="15.75" transform="translate(660.96 449.14) rotate(180)"/><rect class="cls-3" x="176.38" y="505.36" width="115.71" height="34.54" rx="15.75" ry="15.75" transform="translate(622.18 429.9) rotate(131.76)"/><rect class="cls-3" x="176.38" y="505.36" width="115.71" height="34.54" rx="15.75" ry="15.75" transform="translate(280.24 -278.59) rotate(45)"/><rect class="cls-3" x="351.59" y="480.92" width="115.71" height="34.54" rx="15.75" ry="15.75" transform="translate(660.96 730.35) rotate(180)"/><rect class="cls-3" x="351.59" y="529.79" width="115.71" height="34.54" rx="15.75" ry="15.75" transform="translate(660.96 828.09) rotate(180)"/><text class="cls-4" transform="translate(320.29 108.82) scale(0.41 1)"><tspan xml:space="preserve">  </tspan><tspan class="cls-1" x="70.46" y="0">BIL</tspan><tspan class="cls-5" x="260.81" y="0">L</tspan><tspan class="cls-6" x="326.63" y="0"> </tspan><tspan class="cls-2" x="361.86" y="0">CALCUL</tspan><tspan class="cls-7" x="862.23" y="0">A</tspan><tspan class="cls-8" x="937.4" y="0">T</tspan><tspan class="cls-2" x="1012.57" y="0">OR</tspan></text><text class="cls-9" transform="translate(350.41 164.65) scale(0.71 1)">Use our calculator to estimate<tspan x="0" y="64.51">your monthly </tspan><tspan class="cls-2" x="322.69" y="64.51">ELECTRICIT</tspan><tspan class="cls-10" x="636.32" y="64.51">Y</tspan><tspan x="0" y="129.02">and </tspan><tspan class="cls-11" x="104.63" y="129.02">N</tspan><tspan class="cls-12" x="143.46" y="129.02">A</tspan><tspan class="cls-1" x="175.32" y="129.02">TURA</tspan><tspan class="cls-13" x="321.67" y="129.02">L</tspan><tspan class="cls-1" x="349.57" y="129.02" xml:space="preserve"> GAS BILLS</tspan><tspan x="639.42" y="129.02">.</tspan></text></svg>